<svg class="svg-icon" 
     style="fill: currentColor;" 
     viewBox="0 0 1024 1024" 
     version="1.1" 
     xmlns="http://www.w3.org/2000/svg">

    <path d="M511.953836 988.600511a475.499192 475.499192 0 0 0 355.278308-158.882225h-710.556617A475.499192 475.499192 0 0 0 511.953836 988.600511z m428.540668-194.189386l-21.713904 28.422264a511.953836 511.953836 0 0 1-813.653528 0L83.413168 794.411125zM988.600511 494.300255A476.646675 476.646675 0 0 0 35.307161 494.300255zM0 511.953836a511.953836 511.953836 0 0 1 1023.907672 0v17.65358H0z" fill="white" />
    <path d="M511.953836 922.399584a408.768658 408.768658 0 0 0 264.803708-97.094693H681.869549a70.614322 70.614322 0 0 1-136.81525 0H452.726073a48.547347 48.547347 0 1 1-93.387441 0H247.150128a408.768658 408.768658 0 0 0 264.803708 97.094693z m-94.27012-123.575064h-23.302727L406.032353 809.151864zM406.032353 809.151864l-14.564204 12.887114a22.066976 22.066976 0 1 0 29.216675 0z m162.501209-10.327344l0.970946 12.269238a44.133951 44.133951 0 0 0 88.267903 0l0.970947-12.269238h184.303381l-22.684851 22.596583a436.926119 436.926119 0 0 1-616.816104 0l-22.684851-22.596583z m-246.179181-300.11087V494.300255a48.547347 48.547347 0 0 1 97.094693 0v4.413395h167.709015V494.300255a48.547347 48.547347 0 0 1 97.094693 0v4.413395h238.323337a410.445748 410.445748 0 0 0-820.891495 0zM75.027717 511.953836a436.926119 436.926119 0 0 1 873.852237 0v13.240185H643.119939l11.474828-19.860278a22.066976 22.066976 0 1 0-38.220002 0l11.474827 19.860278H378.316231l11.474827-19.860278a22.066976 22.066976 0 1 0-38.220001 0l11.474827 19.860278H75.027717zM503.127046 331.004635a48.547347 48.547347 0 1 1-48.547347 48.547347 48.547347 48.547347 0 0 1 48.547347-48.547347z m0 26.480371a22.066976 22.066976 0 1 0 22.066975 22.066976 22.066976 22.066976 0 0 0-22.066975-22.066976zM145.64204 414.859143a57.374137 57.374137 0 1 1 57.374136 57.374137 57.374137 57.374137 0 0 1-57.374136-57.374137z m26.48037 0a30.893766 30.893766 0 1 0 30.893766-30.893766 30.893766 30.893766 0 0 0-30.893766 30.893766zM600.221739 154.46883a57.374137 57.374137 0 1 1-57.374137 57.374137 57.374137 57.374137 0 0 1 57.374137-57.374137z m0 26.480371a30.893766 30.893766 0 1 0 30.893766 30.893766 30.893766 30.893766 0 0 0-30.893766-30.893766z m-207.429572-8.826791a70.614322 70.614322 0 1 1-70.614322 70.614323 70.614322 70.614322 0 0 1 70.614322-70.614323z m0 26.480371a44.133951 44.133951 0 1 0 44.133952 44.133952 44.133951 44.133951 0 0 0-44.133952-44.133952z m450.166304 203.016176a70.614322 70.614322 0 1 1-70.614322-70.614322 70.614322 70.614322 0 0 1 70.614322 70.614322z m-26.480371 0a44.133951 44.133951 0 1 0-44.133951 44.133952 44.133951 44.133951 0 0 0 44.133951-44.133952z" fill="white" />
    <path d="M70.614322 529.607416v-35.307161h909.159398v35.307161H70.614322zM123.575064 829.718286v-35.307161h741.450383v35.307161H123.575064zM274.689713 582.568158a10.94522 10.94522 0 0 1 10.94522 10.94522v131.783979a10.94522 10.94522 0 0 1-10.94522 10.94522 10.94522 10.94522 0 0 1-10.94522-10.94522V593.513378A10.94522 10.94522 0 0 1 274.689713 582.568158zM403.737387 582.568158h98.860051a10.94522 10.94522 0 0 1 10.94522 10.94522 10.94522 10.94522 0 0 1-10.94522 10.94522h-98.860051a10.94522 10.94522 0 0 1-10.94522-10.94522A10.94522 10.94522 0 0 1 403.737387 582.568158zM403.737387 714.263869h98.860051a10.94522 10.94522 0 0 1 10.94522 10.94522 10.94522 10.94522 0 0 1-10.94522 10.94522h-98.860051a10.94522 10.94522 0 0 1-10.94522-10.94522 10.94522 10.94522 0 0 1 10.94522-10.94522z" fill="white" />
    <path d="M412.564177 731.829182a10.94522 10.94522 0 0 1-17.65358-13.151918l98.860051-131.695711a10.94522 10.94522 0 1 1 17.65358 13.151918z" fill="white" />
    <path d="M632.174719 582.568158h98.771784a10.94522 10.94522 0 0 1 10.94522 10.94522 10.94522 10.94522 0 0 1-10.94522 10.94522H632.174719a10.94522 10.94522 0 0 1-10.94522-10.94522A10.94522 10.94522 0 0 1 632.174719 582.568158z" fill="white" />
    <path d="M632.174719 714.263869h98.771784a10.94522 10.94522 0 0 1 10.94522 10.94522 10.94522 10.94522 0 0 1-10.94522 10.94522H632.174719a10.94522 10.94522 0 0 1-10.94522-10.94522 10.94522 10.94522 0 0 1 10.94522-10.94522z" fill="white" />
    <path d="M640.913242 731.829182a10.94522 10.94522 0 0 1-17.653581-13.151918L722.20798 586.981553a10.94522 10.94522 0 1 1 17.653581 13.151918z" fill="white" />
    <path d="M71.408733 604.546866H48.900418a10.94522 10.94522 0 0 1 0-21.978708h63.641158a44.133951 44.133951 0 0 1 0 87.56176H48.900418a10.94522 10.94522 0 0 1 0-21.978708h60.551781a21.978708 21.978708 0 1 0 0-44.133952z" fill="white" />
    <path d="M48.988686 582.568158a10.94522 10.94522 0 0 1 11.033488 10.94522v131.783979a10.94522 10.94522 0 0 1-10.94522 10.94522 10.94522 10.94522 0 0 1-10.94522-10.94522V593.513378A10.94522 10.94522 0 0 1 48.988686 582.568158z" fill="white" />
    <path d="M906.070022 589.541322a12.004435 12.004435 0 0 1 15.182079-6.178753 10.768684 10.768684 0 0 1 6.620093 14.211133l-55.608779 131.69571a12.004435 12.004435 0 0 1-15.182079 6.178754 10.768684 10.768684 0 0 1-6.620093-14.211133z" fill="white" />
    <path d="M906.15829 597.926773a10.680416 10.680416 0 0 1 6.002217-14.475936 12.004435 12.004435 0 0 1 15.446883 5.649146l61.787532 131.695711a10.680416 10.680416 0 0 1-6.002218 14.475936 12.004435 12.004435 0 0 1-15.446883-5.649146z" fill="white" />
    <path d="M880.913669 689.637124a11.033488 11.033488 0 1 1 0-21.978708h75.822129a11.033488 11.033488 0 1 1 0 21.978708z" fill="white" />
    <path d="M793.704981 202.574837l19.065867 18.536259-300.640476 309.732071-309.643803-309.643803 18.712795-18.712795 290.577936 290.577936 281.927681-290.489668z" fill="white" />

</svg>